<?xml version="1.0" encoding="UTF-8"?><svg id="Calque_1" xmlns="http://www.w3.org/2000/svg" viewBox="0 0 415.58 84.47"><defs><style>.cls-1{fill:#fff;}</style></defs><path d="M153.32,37.26c0,.56,0,1.11,0,1.67,0,8.93,0,17.85,.02,26.78,0,1.1,.16,2.2,.15,3.29-.02,2.38-1.34,3.69-3.7,3.66-5.33-.06-4.58,.68-7.71-3.97-7.7-11.43-15.5-22.78-23.26-34.16-.29-.43-.61-.85-1.07-1.48-1.07,1.52-2.08,2.94-3.06,4.37-7.25,10.65-14.5,21.31-21.74,31.97-.32,.47-.59,.99-.9,1.47-.75,1.18-1.72,1.92-3.23,1.82-1.05-.07-2.12-.15-3.15,.02-1.98,.32-3.72-1.82-3.69-3.73,.14-8.66,.14-17.32,.18-25.98,0-1.88,0-3.76-.34-5.78-.3,.43-.62,.85-.91,1.29-7.31,10.73-14.62,21.47-21.93,32.2-1.85,2.71-4.43,2.69-6.29-.05-7.31-10.73-14.61-21.47-21.92-32.2-.29-.42-.59-.84-1.17-1.68-.06,.92-.12,1.38-.12,1.85,0,9.92,0,19.85,0,29.77,0,3.25-.98,4.27-4.18,4.27-5.49,0-5.91-.42-5.91-5.9,0-14.39,0-28.77,0-43.16,0-.21,0-.42,0-.63-.09-4.54,.61-5.23,5.22-5.21,.68,0,1.37,.02,2.05,0,1.48-.03,2.49,.58,3.35,1.86,8.42,12.45,16.9,24.86,25.36,37.29,.09,.13,.17,.26,.4,.61,.49-.63,.87-1.08,1.21-1.57,7.86-11.57,15.69-23.15,23.59-34.69,.83-1.22,1.85-2.84,3.07-3.15,2.07-.52,4.38-.29,6.55-.06,1.4,.15,2.17,1.75,2.17,3.59,0,9.56-.02,19.11-.03,28.67,0,.55,0,1.11,.31,1.75,1.23-1.79,2.46-3.57,3.68-5.36,5.98-8.79,11.95-17.57,17.92-26.36,2.28-3.36,4.72-3.37,6.98-.03,6.91,10.18,13.84,20.36,20.76,30.54,.29,.42,.61,.82,1.11,1.5,.06-.71,.14-1.14,.13-1.57-.02-9.77-.04-19.53-.07-29.3,0-2.37,1.12-3.58,3.48-3.7,.16,0,.32,0,.47,0q5.35-.1,8.32,4.3c7.7,11.3,15.41,22.59,23.11,33.89,.32,.46,.66,.91,1.14,1.57,.61-.86,1.11-1.56,1.6-2.27,8-11.73,16.01-23.44,23.97-35.2,1.04-1.54,2.23-2.4,4.15-2.22,1.2,.11,2.42-.02,3.62,.03,1.88,.07,3.1,1.31,3.15,3.21,.04,1.52,.01,3.05,.01,4.57,0,14.23,0,28.46,0,42.69,0,3.31-1.03,4.26-4.31,4.37-5.28,.17-5.91-.84-5.85-5.78,.11-9.34,.03-18.69,.02-28.04,0-.51,0-1.02-.33-1.68-.31,.43-.63,.85-.92,1.28-7.32,10.73-14.63,21.47-21.95,32.19-1.86,2.72-4.44,2.73-6.3,.01-7.17-10.51-14.33-21.04-21.49-31.56-.44-.64-.89-1.27-1.34-1.91l-.4,.05Z"/><path d="M299.63,51.79h-2.94v-12.93c1.59-.51,2.7-.09,3.61,1.31,1,1.52,2.21,2.9,3.46,4.52,1.2-1.55,2.4-2.94,3.39-4.46,.86-1.32,1.89-1.85,3.54-1.38v12.95h-2.74v-7.69l-.41-.13c-1.24,1.57-2.48,3.14-3.79,4.8-1.3-1.66-2.54-3.24-3.78-4.81l-.34,.08v7.76Z"/><path d="M232.27,23.23v7.73h-2.99v-12.94c1.61-.47,2.73-.06,3.65,1.33,.99,1.51,2.19,2.89,3.43,4.5,1.24-1.61,2.45-2.98,3.43-4.5,.87-1.34,1.92-1.79,3.53-1.34v12.98h-2.79v-7.69l-.39-.13c-1.24,1.56-2.49,3.12-3.8,4.76-1.3-1.66-2.52-3.22-3.73-4.77l-.33,.07Z"/><path d="M229.24,51.85v-13.33c2.77,.21,5.56,.1,8.19,.71,3.12,.71,4.75,3.67,4.39,6.89-.34,3.07-2.85,5.43-6.32,5.7-2.02,.16-4.07,.03-6.26,.03Zm3.1-2.72c2.33-.08,4.7,.55,6.08-1.86,.86-1.5,.79-3.06-.27-4.42-1.54-1.97-3.71-1.4-5.81-1.36v7.64Z"/><path d="M229.32,59.69c2.43,0,4.77-.28,7.02,.06,3.66,.55,5.77,3.39,5.52,6.83-.23,3.26-2.83,5.82-6.33,6.05-2.03,.13-4.07,.02-6.21,.02v-12.96Zm3.01,10.3c2.29-.12,4.64,.53,6.06-1.87,.89-1.51,.81-3.06-.22-4.42-1.52-2.01-3.71-1.42-5.83-1.43v7.73Z"/><path d="M386.75,38.78v12.9c-1.56,.48-2.68,.16-3.68-1.19-1.68-2.25-3.55-4.36-5.66-6.92v8.16h-2.89v-12.87c1.59-.51,2.7-.02,3.67,1.27,1.48,1.97,3.11,3.82,4.68,5.72,.21,.25,.48,.46,.98,.94v-8.01h2.89Z"/><path d="M263.62,38.75c2.64,0,5.26-.16,7.85,.05,1.88,.15,3.32,1.24,3.76,3.27,.42,1.98-.26,3.48-1.92,4.59-.13,.08-.21,.22-.41,.44,1.01,1.48,2.04,2.98,3.08,4.5-2.55,.62-2.83,.51-4.18-1.49-.18-.26-.42-.49-.54-.77-.92-2.28-2.72-2.23-4.86-1.79v4.23h-2.79v-13.04Zm2.83,6.25c1.66-.09,3.18-.04,4.63-.34,.52-.11,1.15-1.07,1.18-1.66,.02-.5-.69-1.41-1.19-1.5-1.5-.26-3.05-.21-4.62-.28v3.78Z"/><path d="M368.84,46.95c1.17,1.71,2.19,3.21,3.24,4.74-2.14,.57-3.44-.06-4.51-1.87-1.66-2.79-1.78-2.72-5.05-2.31v4.24h-2.86v-13c2.67,0,5.34-.16,7.98,.06,1.74,.14,3.18,1.18,3.59,3.06,.48,2.17-.2,3.94-2.39,5.09Zm-6.32-2.09c1.53,0,2.92,.19,4.22-.08,.65-.14,1.47-1.07,1.57-1.73,.07-.47-.87-1.49-1.47-1.6-1.39-.24-2.86-.08-4.32-.08v3.49Z"/><path d="M292.43,72.57v-13.02c2.69,0,5.3-.13,7.9,.05,1.84,.13,3.24,1.21,3.76,3.08,.56,1.97-.05,3.27-2.32,5.2,.51,.75,1.04,1.5,1.56,2.27,.52,.76,1.02,1.54,1.53,2.31-2.21,.74-3.44-.17-4.53-1.94-1.61-2.63-1.73-2.56-4.95-2.2v4.25h-2.94Zm3-10.47v3.59c1.39,0,2.68,.07,3.97-.02,1.03-.07,1.83-.67,1.85-1.77,.02-1.12-.82-1.69-1.83-1.77-1.29-.1-2.59-.03-4-.03Z"/><path d="M330.66,51.83v-13.36c2.8,.24,5.6,.17,8.23,.79,3,.71,4.65,3.69,4.33,6.81-.3,2.98-2.75,5.38-6.16,5.72-2.07,.2-4.17,.04-6.41,.04Zm2.96-10.39v7.69c2.17-.04,4.39,.55,5.97-1.54,.92-1.21,1.02-2.94,.21-4.3-1.42-2.39-3.75-1.82-6.18-1.85Z"/><path d="M313.57,45.21c0-3.89,3.05-6.76,7.15-6.75,4.12,.01,7.16,2.85,7.21,6.72,.05,3.96-2.96,6.85-7.18,6.88-4.21,.03-7.19-2.82-7.19-6.86Zm7.09-4.02c-2.46,.02-4.22,1.77-4.16,4.16,.05,2.38,1.84,4.05,4.31,4.03,2.46-.03,4.16-1.74,4.13-4.17-.03-2.4-1.78-4.04-4.28-4.01Z"/><path d="M393.25,46.48v2.63h7.81v2.67h-10.76v-12.97h10.52v2.58h-7.53v2.53h4.68v2.58h-4.72Z"/><path d="M255.25,59.61v2.6h-7.61v2.54h4.74v2.55h-4.76c-.04,.91-.07,1.66-.12,2.63h7.99v2.63h-10.8v-12.95h10.56Z"/><path d="M275.82,30.99v-13h10.58v2.57h-7.66v2.55h4.82v2.61h-4.78v2.6h7.77v2.68h-10.73Z"/><path d="M356.67,38.8v2.57h-7.66v2.52h4.78v2.59h-4.73v2.61h7.68v2.69h-10.62v-12.98h10.55Z"/><path d="M260.89,29.45c.46-.79,.84-1.46,1.02-1.77,2.14,.34,4.05,.66,5.98,.93,.4,.05,.92,.02,1.21-.2,.45-.34,.92-.83,1.04-1.34,.05-.23-.7-.83-1.16-.94-1.37-.32-2.78-.46-4.17-.72-2.52-.48-3.67-1.54-3.71-3.35-.05-1.95,1.39-3.59,3.63-4.14,3.35-.82,6.16,.07,7.89,2.6-1.12,.7-1.91,1.46-3.47,.29-.92-.69-2.67-.37-4.04-.31-.35,.02-.92,.8-.91,1.22,0,.37,.63,.94,1.07,1.05,1.52,.37,3.09,.52,4.63,.84,2.19,.45,3.25,1.5,3.35,3.18,.1,1.75-1.02,3.38-2.98,3.95-3.25,.95-6.37,.69-9.37-1.29Z"/><path d="M312.62,71.11l1.34-2.27c1.97,1.28,4.04,1.78,6.21,1.32,.68-.15,1.24-.88,1.85-1.35-.6-.39-1.14-.97-1.79-1.14-1.61-.42-3.31-.52-4.9-1-2.6-.79-3.24-3.75-1.39-5.75,2.18-2.36,8.93-2.26,10.36,1.25-1.06,.7-1.85,1.4-3.36,.29-.94-.69-2.67-.39-4.04-.34-.36,.01-.96,.77-.97,1.19,0,.37,.61,.97,1.05,1.08,1.42,.35,2.88,.5,4.32,.77,2.44,.46,3.56,1.46,3.65,3.23,.1,2-.91,3.38-3.2,4.06-3.17,.94-6.17,.47-9.13-1.32Z"/><path d="M289.43,17.94h10.54v2.57h-7.65v2.58h4.83v2.67h-4.82v2.51h7.85v2.72h-10.75v-13.04Z"/><path d="M290.37,72.59c-1.73,.03-3.47,.7-3.98-1.69-.05-.25-.75-.5-1.16-.52-1.2-.07-2.42,.04-3.62-.05-1.29-.09-2.07,.22-2.59,1.57-.64,1.64-2.16,.45-3.53,.87,1.8-4.05,3.54-7.79,5.12-11.59,.55-1.31,1.23-1.91,2.67-1.72,.75,.1,1.31,.07,1.69,.96,1.72,4.03,3.55,8.01,5.4,12.17Zm-5.24-4.76c-.74-1.76-1.39-3.31-2.17-5.19-.81,1.92-1.46,3.48-2.17,5.19h4.35Z"/><path d="M261.52,51.83h-3.27c-.23-2.3-1.79-2.55-3.69-2.34-.93,.1-1.89-.02-2.83,.05-.37,.03-.99,.25-1.03,.47-.45,2.37-2.16,1.92-3.93,1.76,.25-.62,.46-1.19,.71-1.75,1.51-3.39,3.11-6.75,4.5-10.19,.53-1.32,1.44-1.05,2.4-1.14,.92-.09,1.42,.21,1.79,1.08,1.72,3.98,3.51,7.92,5.36,12.07Zm-7.41-10.03c-.81,1.93-1.46,3.46-2.19,5.19h4.33c-.7-1.69-1.33-3.24-2.14-5.19Z"/><path d="M263.91,59.54c2.68,0,5.3-.16,7.89,.04,2.48,.19,4.02,2.07,4.03,4.4,0,2.38-1.46,4.04-4,4.41-.82,.12-1.67,.1-2.51,.11-.82,.02-1.64,0-2.59,0v4.03h-2.82v-13.01Zm3.03,6.32c1.43,0,2.94,.15,4.41-.07,.58-.09,1.38-.94,1.45-1.53,.08-.59-.53-1.75-.99-1.84-1.56-.29-3.19-.2-4.79-.26-.08,1.16-.16,2.33-.23,3.49,0,.04,.06,.08,.16,.21Z"/><path d="M246.54,17.93h2.92c0,1.19,0,2.36,0,3.54,0,1.36-.04,2.73,.01,4.09,.07,2.02,1.03,2.94,3.04,3.01,2.22,.07,3.33-.95,3.37-3.18,.04-2.45,0-4.9,0-7.42h2.83c0,3.06,.22,6.06-.11,8.99-.13,1.2-1.21,2.64-2.27,3.32-2.3,1.47-4.91,1.32-7.35,.11-1.51-.75-2.36-2.16-2.42-3.81-.12-2.82-.03-5.64-.03-8.64Z"/><path d="M281.19,51.75v-10.3h-4.52v-2.64h12.07v2.55h-4.41v10.38h-3.13Z"/><path d="M307.28,72.58v-12.96h2.74v12.96h-2.74Z"/><path d="M243.96,44.85c.54-.86,1.08-1.72,1.7-2.71-.4-.18-.75-.23-.91-.43-.41-.54-1.01-1.14-1.02-1.72,0-.47,.7-1.3,1.16-1.35,.65-.08,1.8,.25,1.97,.69,.35,.94,.53,2.2,.17,3.07-.47,1.11-1.54,1.97-2.35,2.94l-.73-.49Z"/><path d="M284.02,13.58c-1.3,1.48-1.96,3.49-4.36,2.69,.51-2.58,1.02-2.92,4.36-2.69Z"/><path class="cls-1" d="M362.52,44.86v-3.49c1.46,0,2.93-.17,4.32,.08,.6,.1,1.54,1.12,1.47,1.6-.1,.67-.92,1.6-1.57,1.73-1.3,.27-2.69,.08-4.22,.08Z"/></svg>